# xmcd CD Database Entry
#
# Track frame offsets:
# 150
# 20892
# 42814
# 67133
# 91213
# 106560
# 137636
# 155644
# 173867
# 192299
#
# Disc length: 3192 seconds
#
# Revision: 1
# Processed by: cddbd v1.4PL0 Copyright (c) Steve Scherf et al.
# Submitted via: tcd 2.0b
#
DISCID=830c760a
DTITLE=Scarlet Runner/Departure
DYEAR=1900
DGENRE=
TTITLE0=Wrong Side
TTITLE1=Crazy Chimpanzee
TTITLE2=Soul Blanket
TTITLE3=State of Affairs
TTITLE4=Grinder
TTITLE5=Praise You
TTITLE6=Me
TTITLE7=Tied
TTITLE8=Who's In Charge
TTITLE9=Hurt and Pain
EXTD=
EXTT0=
EXTT1=
EXTT2=
EXTT3=
EXTT4=
EXTT5=
EXTT6=
EXTT7=
EXTT8=
EXTT9=
PLAYORDER=
